<svg width="20" height="20" viewBox="0 0 20 20" fill="none" xmlns="http://www.w3.org/2000/svg">
<g clip-path="url(#clip0_13_545)">
<path d="M15.35 2.63C13.66 0.94 11.38 0 8.99 0C6.6 0 4.32 0.95 2.63 2.63C0.95 4.32 0 6.61 0 8.99C0 11.37 0.95 13.66 2.63 15.35C3.25 15.97 3.95 16.47 4.7 16.87C4.84 16.55 5.02 16.25 5.24 15.96C5.26 15.94 5.28 15.92 5.3 15.9C4.2 15.32 3.24 14.51 2.53 13.48H4.59C4.78 14.08 5.02 14.66 5.31 15.21C5.39 15.35 5.48 15.48 5.57 15.62C5.74 15.46 5.92 15.32 6.11 15.17C6.22 15.08 6.35 15.01 6.47 14.94C6.41 14.86 6.36 14.78 6.31 14.68C6.12 14.32 5.94 13.91 5.78 13.48H5.82C5.8 13.41 5.78 13.34 5.77 13.26C5.62 12.99 5.56 12.67 5.58 12.35H5.44C5.22 11.43 5.09 10.49 5.06 9.54H8.42V9.56C8.42 9.56 8.49 9.55 8.52 9.55C8.59 9.55 8.65 9.56 8.71 9.57H8.74C9.03 9.19 9.33 8.83 9.66 8.49C9.67 8.47 9.69 8.45 9.7 8.42H9.54V5.61H12.52V5.64C12.91 5.64 13.3 5.64 13.68 5.64V5.61H16.09C16.49 5.61 16.89 5.6 17.29 5.58C16.84 4.49 16.18 3.48 15.33 2.63H15.35ZM1.88 12.36C1.47 11.5 1.21 10.55 1.14 9.55H3.94C3.97 10.5 4.09 11.44 4.29 12.36H1.88ZM3.94 8.43H1.14C1.21 7.46 1.46 6.5 1.88 5.62H4.29C4.09 6.5 3.97 7.44 3.94 8.43ZM2.53 4.5C3.39 3.26 4.59 2.3 5.98 1.72C5.73 2.05 5.5 2.4 5.31 2.77C5.02 3.32 4.78 3.9 4.59 4.5H2.53ZM8.42 8.43H5.06C5.09 7.48 5.22 6.54 5.44 5.62H8.42V8.43ZM8.42 4.5H5.77C5.92 4.09 6.09 3.69 6.3 3.3C6.92 2.14 7.67 1.44 8.42 1.22V4.5ZM9.54 4.5V1.21C10.29 1.44 11.04 2.13 11.66 3.29C11.86 3.68 12.04 4.08 12.19 4.49H9.54V4.5ZM13.37 4.5C13.17 3.87 12.93 3.29 12.65 2.77C12.45 2.39 12.22 2.04 11.98 1.72C13.37 2.3 14.57 3.26 15.43 4.5H13.37Z" fill="#1A1A1E"/>
<path d="M8.24996 14.51C9.15996 14.51 9.88996 13.8 9.88996 12.9C9.88996 11.14 11.35 9.69 13.17 9.69H18.06C18.97 9.69 19.7 8.98 19.7 8.08C19.7 7.18 18.97 6.5 18.06 6.5H13.14C12.26 6.5 11.53 7.21 11.5 8.08V8.13C11.5 9.89 10.02 11.32 8.21996 11.32C7.30996 11.32 6.57996 12.03 6.57996 12.93C6.60996 13.8 7.32996 14.51 8.23996 14.51H8.24996Z" fill="url(#paint0_linear_13_545)"/>
<path d="M18.05 11.3201C17.14 11.3201 16.41 12.0301 16.41 12.9301C16.41 14.6901 14.95 16.1401 13.16 16.1401H8.23998C7.32998 16.1101 6.59998 16.8301 6.59998 17.7201C6.59998 18.6101 7.32998 19.3301 8.23998 19.3301H13.13C14.04 19.3301 14.77 18.6201 14.77 17.7201C14.77 15.9301 16.23 14.5101 18.05 14.5101C18.96 14.5101 19.69 13.8001 19.69 12.9001C19.69 12.0001 18.96 11.3201 18.05 11.3201Z" fill="url(#paint1_linear_13_545)"/>
</g>
<defs>
<linearGradient id="paint0_linear_13_545" x1="7.73996" y1="14.82" x2="18.25" y2="5.83" gradientUnits="userSpaceOnUse">
<stop offset="0.1" stop-color="#1118C3"/>
<stop offset="0.18" stop-color="#2A1AC5"/>
<stop offset="0.35" stop-color="#681FCA"/>
<stop offset="0.46" stop-color="#9423CE"/>
<stop offset="0.51" stop-color="#A93BAB"/>
<stop offset="0.59" stop-color="#C3587F"/>
<stop offset="0.67" stop-color="#D9715B"/>
<stop offset="0.76" stop-color="#EA843F"/>
<stop offset="0.84" stop-color="#F5912B"/>
<stop offset="0.92" stop-color="#FD991F"/>
<stop offset="1" stop-color="#FF9C1B"/>
</linearGradient>
<linearGradient id="paint1_linear_13_545" x1="8.95998" y1="20.4101" x2="17.33" y2="10.2301" gradientUnits="userSpaceOnUse">
<stop offset="0.12" stop-color="#1E119B"/>
<stop offset="0.47" stop-color="#171EE6"/>
<stop offset="0.54" stop-color="#3A1FDF"/>
<stop offset="0.63" stop-color="#5A21D9"/>
<stop offset="0.71" stop-color="#7422D4"/>
<stop offset="0.8" stop-color="#8622D1"/>
<stop offset="0.89" stop-color="#9123CF"/>
<stop offset="1" stop-color="#9423CE"/>
</linearGradient>
<clipPath id="clip0_13_545">
<rect width="19.69" height="19.33" fill="white"/>
</clipPath>
</defs>
</svg>
