<svg width="216" height="33" viewBox="0 0 216 33" fill="none" xmlns="http://www.w3.org/2000/svg">
<g clip-path="url(#clip0_13_552)">
<path d="M44.29 8.05005H48.59L53.36 20.09L58.14 8.05005H62.28V24.13H59.2V13.13L54.7 24.13H51.85L47.37 13.15V24.13H44.29V8.05005Z" fill="#1A1A1E"/>
<path d="M68.2699 24.57L63.3799 12.3H66.5999L69.8599 21.01L73.1199 12.3H76.3099L69.7699 28.73H66.5999L68.2699 24.57Z" fill="#1A1A1E"/>
<path d="M76.28 21.33L84.07 10.85H76.28V8.05005H87.95V10.85L80.16 21.33H87.95V24.13H76.28V21.33Z" fill="#1A1A1E"/>
<path d="M92.4099 20.6501C93.0199 21.3001 93.7899 21.6301 94.7099 21.6301C95.6299 21.6301 96.3999 21.3001 97.0199 20.6501C97.6399 20.0001 97.9499 19.1801 97.9499 18.2001C97.9499 17.2201 97.6399 16.4301 97.0199 15.7801C96.3999 15.1301 95.6299 14.8001 94.7099 14.8001C93.7899 14.8001 93.0299 15.1301 92.4099 15.7801C91.7999 16.4301 91.4899 17.2401 91.4899 18.2001C91.4899 19.1601 91.7999 20.0001 92.4099 20.6501ZM90.1999 13.8401C91.4099 12.6601 92.9099 12.0701 94.6999 12.0701C96.4899 12.0701 97.9899 12.6601 99.1999 13.8401C100.41 15.0201 101.02 16.4701 101.02 18.2101C101.02 19.9501 100.41 21.4201 99.1999 22.6001C97.9899 23.7801 96.4899 24.3701 94.6999 24.3701C92.9099 24.3701 91.4099 23.7801 90.1999 22.6001C88.9899 21.4201 88.3799 19.9601 88.3799 18.2101C88.3799 16.4601 88.9799 15.0201 90.1999 13.8401Z" fill="#1A1A1E"/>
<path d="M102.57 12.3001H105.56V13.8601C106.45 12.6701 107.69 12.0701 109.28 12.0701C110.69 12.0701 111.84 12.5301 112.74 13.4501C113.64 14.3701 114.08 15.5401 114.08 16.9601V24.1301H111.09V17.4901C111.09 16.6901 110.83 16.0401 110.32 15.5401C109.81 15.0301 109.14 14.7801 108.33 14.7801C107.52 14.7801 106.85 15.0301 106.33 15.5401C105.81 16.0501 105.55 16.7001 105.55 17.4901V24.1301H102.56V12.3001H102.57Z" fill="#1A1A1E"/>
<path d="M124.9 16.9901C124.7 16.2901 124.32 15.7201 123.77 15.2801C123.22 14.8401 122.57 14.6301 121.82 14.6301C121.07 14.6301 120.42 14.8501 119.87 15.3001C119.32 15.7401 118.95 16.3101 118.77 17.0001H124.9V16.9901ZM117.4 13.8401C118.59 12.6601 120.06 12.0701 121.82 12.0701C123.78 12.0701 125.36 12.7801 126.56 14.2001C127.76 15.6201 128.22 17.3101 127.93 19.2701H118.72C118.9 20.0001 119.28 20.6101 119.85 21.0901C120.42 21.5601 121.14 21.8001 122.03 21.8001C122.69 21.8001 123.28 21.6501 123.81 21.3401C124.34 21.0301 124.76 20.6101 125.06 20.0801L127.52 21.1801C126.98 22.1401 126.23 22.9201 125.26 23.5001C124.29 24.0801 123.18 24.3701 121.94 24.3701C120.15 24.3701 118.65 23.7801 117.44 22.6001C116.23 21.4201 115.62 19.9601 115.62 18.2101C115.62 16.4601 116.21 15.0201 117.4 13.8401Z" fill="#1A1A1E"/>
<path d="M4.02 20.11C6.24 20.11 8.04 18.31 8.04 16.09C8.04 11.65 11.64 8.04 16.08 8.04H28.15C30.37 8.04 32.17 6.24 32.17 4.02C32.17 1.8 30.38 0 28.16 0H16.09C13.89 0 12.1 1.77 12.07 3.97C12.07 3.99 12.07 4 12.07 4.02C12.07 4.04 12.07 4.05 12.07 4.07C12.04 8.49 8.45 12.07 4.02 12.07C1.8 12.07 0 13.87 0 16.09C0 18.31 1.8 20.11 4.02 20.11Z" fill="#1A1A1E"/>
<path d="M28.16 12.0701C25.94 12.0701 24.14 13.8701 24.14 16.0901C24.14 20.5301 20.55 24.1301 16.11 24.1401H4.02C1.8 24.1401 0 25.9401 0 28.1601C0 30.3801 1.8 32.1801 4.02 32.1801H16.09C18.31 32.1801 20.11 30.3801 20.11 28.1601C20.11 23.7201 23.71 20.1101 28.15 20.1101C30.37 20.1101 32.17 18.3101 32.17 16.0901C32.17 13.8701 30.37 12.0701 28.15 12.0701H28.16Z" fill="#1A1A1E"/>
<path d="M153.91 8.02V24.12H152.43V17.46C152.43 14.77 152.46 13.31 152.51 11.17L147.23 23.67H145.77L140.46 11.22C140.54 13.36 140.58 14.87 140.58 17.46V24.12H139.07V8H140.58L146.49 21.98L152.37 8L153.9 8.03L153.91 8.02Z" fill="#1A1A1E"/>
<path d="M167.44 13.1501V24.1101H166.11V21.8001C165.43 23.3101 163.8 24.4201 161.66 24.4201C158.62 24.4201 156.45 22.1301 156.45 18.6401C156.45 15.1501 158.66 12.8601 161.73 12.8601C163.79 12.8601 165.45 13.8401 166.13 15.3701L166.25 13.1601H167.43L167.44 13.1501ZM165.93 18.5601C165.93 15.8401 164.35 14.1301 161.96 14.1301C159.57 14.1301 157.91 15.9701 157.91 18.6301C157.91 21.2901 159.52 23.1301 161.91 23.1301C164.3 23.1301 165.93 21.3401 165.93 18.5501V18.5601Z" fill="#1A1A1E"/>
<path d="M169.7 21.1701H171.08C171.18 22.5001 172.34 23.2601 173.97 23.2601C175.6 23.2601 176.71 22.5301 176.71 21.2501C176.71 19.8701 175.53 19.4901 174.7 19.3401L172.66 18.8901C170.75 18.4601 169.99 17.3601 169.99 16.0001C169.99 14.1101 171.57 12.8601 173.91 12.8601C176.25 12.8601 177.91 14.1901 177.96 16.1501H176.58C176.53 14.7701 175.45 14.0101 173.91 14.0101C172.37 14.0101 171.45 14.6601 171.45 15.9001C171.45 17.2101 172.58 17.5101 173.28 17.6601L175.54 18.1601C177.37 18.5901 178.18 19.7401 178.18 21.1501C178.18 23.1601 176.55 24.4201 173.96 24.4201C171.37 24.4201 169.79 23.1401 169.69 21.1801L169.7 21.1701Z" fill="#1A1A1E"/>
<path d="M185.29 14.33H183.08V24.11H181.65V14.33H179.46V13.15H181.65V10.21H183.08V13.15H185.29V14.33Z" fill="#1A1A1E"/>
<path d="M191.78 24.4201C188.49 24.4201 186.3 22.0801 186.3 18.6101C186.3 15.1401 188.59 12.8501 191.71 12.8501C194.83 12.8501 196.84 14.9901 196.84 17.9801C196.84 18.5301 196.82 18.7801 196.76 19.1101H187.71C187.81 21.6001 189.42 23.2101 191.78 23.2101C193.54 23.2101 194.97 22.3001 195.43 20.9501H196.86C196.33 23.0601 194.27 24.4201 191.78 24.4201ZM195.4 17.9801C195.37 15.6201 193.89 14.0801 191.7 14.0801C189.51 14.0801 187.78 15.6101 187.7 17.9801H195.4Z" fill="#1A1A1E"/>
<path d="M204.7 13.15V14.33C202.16 13.93 200.68 15.31 200.68 17.8V24.11H199.22V13.15H200.43L200.66 14.94C201.04 13.73 202.19 13.03 203.63 13.03C204.03 13.03 204.43 13.08 204.71 13.16L204.7 13.15Z" fill="#1A1A1E"/>
<path d="M215.81 13.1499L210.81 26.4299C210.03 28.3699 209 29.0699 207.29 29.0699C206.81 29.0699 206.18 28.9899 205.78 28.8699V27.6599C205.98 27.7099 206.41 27.8399 207.06 27.8399C208.49 27.8399 209.02 27.2599 209.45 26.1299L209.93 24.8199L205.25 13.1499H206.76L210.61 22.9799L214.28 13.1499H215.81Z" fill="#1A1A1E"/>
</g>
<defs>
<clipPath id="clip0_13_552">
<rect width="215.81" height="32.18" fill="white"/>
</clipPath>
</defs>
</svg>
